# xmcd
#
# Track frame offsets:
#	150
#	17898
#	36880
#	57416
#	73549
#	91513
#	105416
#	121940
#	139009
#	157592
#	177880
#	195203
#	205791
#	222183
#	237735
#	258958
#	278855
#	293877
#	310228
#	327556
#
# Disc length: 4630 seconds
#
# Revision: 2
# Processed by: cddbd v1.5.2PL0 Copyright (c) Steve Scherf et al.
# Submitted via: dBpowerAMP V4.0
#
DISCID=18121414
DTITLE=Various Artist - Hott Urban Volume 23 Can
DYEAR=2017
DGENRE=Urban
TTITLE0=21 Savage and Metro Boomin - No Heart
TTITLE1=Future ft. Rihanna - Selfish
TTITLE2=Nicki Minaj, Drake And Lil Wayne - No Frauds
TTITLE3=Missy Elliot ft. Lamb - I'm Better
TTITLE4=Wale ft. G-Eazy - Fashion Week
TTITLE5=Omarion - Distance
TTITLE6=DJ E Feezy ft. K Michelle, Rick Ross And Fabulous - Got Me Crazy (No Better Love)
TTITLE7=Future - Draco
TTITLE8=Pnb Rock - Selfish
TTITLE9=Kodak Black - Tunnel Vision
TTITLE10=Weeknd. The ft. Daft Punk - I Feel It Coming
TTITLE11=Ugly God - Water
TTITLE12=Lil Uzi Vert ft. Quavo, Travis Scott - Go Off
TTITLE13=Bruno Mars - That's What I Like
TTITLE14=Meek Mill - Litty
TTITLE15=J. Cole - Deja Vu
TTITLE16=Jacob Latimore ft. Ishdarr - The Real
TTITLE17=Jason Derulo ft. Nicki Minaj And TY Dolla $ign - Swalla
TTITLE18=Nicki Minaj - Regret In Your Tears
TTITLE19=Montana Of 300 - Ice Cream Truck
EXTD=
EXTT0=
EXTT1=
EXTT2=
EXTT3=
EXTT4=
EXTT5=
EXTT6=
EXTT7=
EXTT8=
EXTT9=
EXTT10=
EXTT11=
EXTT12=
EXTT13=
EXTT14=
EXTT15=
EXTT16=
EXTT17=
EXTT18=
EXTT19=
PLAYORDER=
